<mxfile host="app.diagrams.net" modified="2024-03-27T01:31:32.907Z" agent="Mozilla/5.0 (Windows NT 10.0; Win64; x64) AppleWebKit/537.36 (KHTML, like Gecko) Chrome/122.0.0.0 Safari/537.36 Edg/122.0.0.0" etag="FzxQilcihks7vQq53lWO" version="24.2.0" type="device">
  <diagram name="Seite-1" id="3s1ToQZ2nsnDo8PqGFqc">
    <mxGraphModel dx="917" dy="788" grid="1" gridSize="10" guides="1" tooltips="1" connect="1" arrows="1" fold="1" page="1" pageScale="1" pageWidth="827" pageHeight="1169" math="0" shadow="0">
      <root>
        <mxCell id="0" />
        <mxCell id="1" parent="0" />
        <mxCell id="Vm1JU73PjJUHB3CntX3w-1" value="&lt;div style=&quot;&quot;&gt;&lt;br&gt;&lt;/div&gt;" style="rounded=1;whiteSpace=wrap;html=1;sketch=1;hachureGap=4;jiggle=2;curveFitting=1;fontFamily=Architects Daughter;fontSource=https%3A%2F%2Ffonts.googleapis.com%2Fcss%3Ffamily%3DArchitects%2BDaughter;fontSize=20;align=center;fillColor=#e1d5e7;strokeColor=#9673a6;perimeterSpacing=1;strokeWidth=5;opacity=80;shadow=0;" parent="1" vertex="1">
          <mxGeometry x="100" y="120" width="330" height="250" as="geometry" />
        </mxCell>
        <mxCell id="Vm1JU73PjJUHB3CntX3w-15" value="" style="edgeStyle=orthogonalEdgeStyle;rounded=0;sketch=1;hachureGap=4;jiggle=2;curveFitting=1;orthogonalLoop=1;jettySize=auto;html=1;exitX=0.25;exitY=1;exitDx=0;exitDy=0;entryX=0.393;entryY=0.062;entryDx=0;entryDy=0;entryPerimeter=0;fontFamily=Architects Daughter;fontSource=https%3A%2F%2Ffonts.googleapis.com%2Fcss%3Ffamily%3DArchitects%2BDaughter;fontSize=16;" parent="1" source="Vm1JU73PjJUHB3CntX3w-2" target="Vm1JU73PjJUHB3CntX3w-14" edge="1">
          <mxGeometry relative="1" as="geometry" />
        </mxCell>
        <mxCell id="Vm1JU73PjJUHB3CntX3w-18" value="&lt;font face=&quot;Helvetica&quot; style=&quot;font-size: 13px;&quot;&gt;&amp;nbsp;IO&amp;nbsp;&lt;/font&gt;" style="edgeStyle=orthogonalEdgeStyle;rounded=0;sketch=1;hachureGap=4;jiggle=2;curveFitting=1;orthogonalLoop=1;jettySize=auto;html=1;exitX=0.25;exitY=1;exitDx=0;exitDy=0;entryX=0.5;entryY=0;entryDx=0;entryDy=0;fontFamily=Architects Daughter;fontSource=https%3A%2F%2Ffonts.googleapis.com%2Fcss%3Ffamily%3DArchitects%2BDaughter;fontSize=16;" parent="1" source="Vm1JU73PjJUHB3CntX3w-2" target="Vm1JU73PjJUHB3CntX3w-16" edge="1">
          <mxGeometry relative="1" as="geometry" />
        </mxCell>
        <mxCell id="Vm1JU73PjJUHB3CntX3w-42" style="edgeStyle=orthogonalEdgeStyle;rounded=0;sketch=1;hachureGap=4;jiggle=2;curveFitting=1;orthogonalLoop=1;jettySize=auto;html=1;exitX=0.5;exitY=0;exitDx=0;exitDy=0;entryX=0;entryY=0.5;entryDx=0;entryDy=0;fontFamily=Architects Daughter;fontSource=https%3A%2F%2Ffonts.googleapis.com%2Fcss%3Ffamily%3DArchitects%2BDaughter;fontSize=16;" parent="1" source="Vm1JU73PjJUHB3CntX3w-2" target="Vm1JU73PjJUHB3CntX3w-4" edge="1">
          <mxGeometry relative="1" as="geometry" />
        </mxCell>
        <mxCell id="Vm1JU73PjJUHB3CntX3w-43" style="edgeStyle=orthogonalEdgeStyle;rounded=0;sketch=1;hachureGap=4;jiggle=2;curveFitting=1;orthogonalLoop=1;jettySize=auto;html=1;exitX=0.5;exitY=0;exitDx=0;exitDy=0;fontFamily=Architects Daughter;fontSource=https%3A%2F%2Ffonts.googleapis.com%2Fcss%3Ffamily%3DArchitects%2BDaughter;fontSize=16;" parent="1" source="Vm1JU73PjJUHB3CntX3w-2" target="Vm1JU73PjJUHB3CntX3w-5" edge="1">
          <mxGeometry relative="1" as="geometry">
            <Array as="points">
              <mxPoint x="175" y="150" />
              <mxPoint x="277" y="150" />
              <mxPoint x="277" y="218" />
            </Array>
          </mxGeometry>
        </mxCell>
        <mxCell id="Vm1JU73PjJUHB3CntX3w-44" value="&lt;font style=&quot;font-size: 13px;&quot;&gt;&amp;nbsp;i2c&amp;nbsp;&lt;/font&gt;" style="edgeLabel;html=1;align=center;verticalAlign=middle;resizable=0;points=[];fontSize=20;fontFamily=Helvetica;labelBackgroundColor=#FFFFFF;" parent="Vm1JU73PjJUHB3CntX3w-43" vertex="1" connectable="0">
          <mxGeometry x="-0.3102" y="-4" relative="1" as="geometry">
            <mxPoint x="8" y="-4" as="offset" />
          </mxGeometry>
        </mxCell>
        <mxCell id="Vm1JU73PjJUHB3CntX3w-2" value="&lt;b&gt;ESP32&lt;/b&gt;" style="rounded=0;whiteSpace=wrap;html=1;sketch=1;hachureGap=4;jiggle=2;curveFitting=1;fontFamily=Architects Daughter;fontSource=https%3A%2F%2Ffonts.googleapis.com%2Fcss%3Ffamily%3DArchitects%2BDaughter;fontSize=20;fillColor=#A8A8A8;strokeWidth=2;opacity=90;" parent="1" vertex="1">
          <mxGeometry x="120" y="192.5" width="110" height="45" as="geometry" />
        </mxCell>
        <mxCell id="Vm1JU73PjJUHB3CntX3w-3" value="Main Board&lt;br&gt;(1 or 5)" style="text;html=1;strokeColor=none;fillColor=none;align=center;verticalAlign=middle;whiteSpace=wrap;rounded=0;fontSize=20;fontFamily=Architects Daughter;" parent="1" vertex="1">
          <mxGeometry x="184" y="330" width="140" height="30" as="geometry" />
        </mxCell>
        <mxCell id="Vm1JU73PjJUHB3CntX3w-4" value="&lt;font style=&quot;font-size: 16px;&quot;&gt;bme280&lt;/font&gt;" style="rounded=0;whiteSpace=wrap;html=1;sketch=1;hachureGap=4;jiggle=2;curveFitting=1;fontFamily=Architects Daughter;fontSource=https%3A%2F%2Ffonts.googleapis.com%2Fcss%3Ffamily%3DArchitects%2BDaughter;fontSize=20;fillColor=#dae8fc;strokeColor=#6c8ebf;strokeWidth=2;" parent="1" vertex="1">
          <mxGeometry x="324" y="130" width="90" height="40" as="geometry" />
        </mxCell>
        <mxCell id="Vm1JU73PjJUHB3CntX3w-5" value="&lt;font style=&quot;font-size: 16px;&quot;&gt;RTC&lt;/font&gt;" style="rounded=0;whiteSpace=wrap;html=1;sketch=1;hachureGap=4;jiggle=2;curveFitting=1;fontFamily=Architects Daughter;fontSource=https://fonts.googleapis.com/css?family=Architects+Daughter;fontSize=20;fillColor=#dae8fc;strokeColor=#6c8ebf;strokeWidth=2;" parent="1" vertex="1">
          <mxGeometry x="324" y="197.5" width="90" height="40" as="geometry" />
        </mxCell>
        <mxCell id="Vm1JU73PjJUHB3CntX3w-25" style="edgeStyle=orthogonalEdgeStyle;rounded=0;sketch=1;hachureGap=4;jiggle=2;curveFitting=1;orthogonalLoop=1;jettySize=auto;html=1;exitX=0.25;exitY=1;exitDx=0;exitDy=0;entryX=0.229;entryY=0.01;entryDx=0;entryDy=0;entryPerimeter=0;fontFamily=Architects Daughter;fontSource=https%3A%2F%2Ffonts.googleapis.com%2Fcss%3Ffamily%3DArchitects%2BDaughter;fontSize=16;" parent="1" source="Vm1JU73PjJUHB3CntX3w-14" target="Vm1JU73PjJUHB3CntX3w-24" edge="1">
          <mxGeometry relative="1" as="geometry">
            <Array as="points">
              <mxPoint x="138" y="370" />
              <mxPoint x="140" y="370" />
              <mxPoint x="140" y="400" />
              <mxPoint x="309" y="400" />
            </Array>
          </mxGeometry>
        </mxCell>
        <mxCell id="Vm1JU73PjJUHB3CntX3w-26" style="edgeStyle=orthogonalEdgeStyle;rounded=0;sketch=1;hachureGap=4;jiggle=2;curveFitting=1;orthogonalLoop=1;jettySize=auto;html=1;exitX=0.5;exitY=1;exitDx=0;exitDy=0;entryX=0.5;entryY=0;entryDx=0;entryDy=0;fontFamily=Architects Daughter;fontSource=https%3A%2F%2Ffonts.googleapis.com%2Fcss%3Ffamily%3DArchitects%2BDaughter;fontSize=16;" parent="1" source="Vm1JU73PjJUHB3CntX3w-14" target="Vm1JU73PjJUHB3CntX3w-24" edge="1">
          <mxGeometry relative="1" as="geometry">
            <Array as="points">
              <mxPoint x="155" y="390" />
              <mxPoint x="355" y="390" />
            </Array>
          </mxGeometry>
        </mxCell>
        <mxCell id="Vm1JU73PjJUHB3CntX3w-27" style="edgeStyle=orthogonalEdgeStyle;rounded=0;sketch=1;hachureGap=4;jiggle=2;curveFitting=1;orthogonalLoop=1;jettySize=auto;html=1;exitX=0.75;exitY=1;exitDx=0;exitDy=0;entryX=0.75;entryY=0;entryDx=0;entryDy=0;fontFamily=Architects Daughter;fontSource=https%3A%2F%2Ffonts.googleapis.com%2Fcss%3Ffamily%3DArchitects%2BDaughter;fontSize=16;" parent="1" source="Vm1JU73PjJUHB3CntX3w-14" target="Vm1JU73PjJUHB3CntX3w-24" edge="1">
          <mxGeometry relative="1" as="geometry">
            <Array as="points">
              <mxPoint x="173" y="380" />
              <mxPoint x="398" y="380" />
            </Array>
          </mxGeometry>
        </mxCell>
        <mxCell id="Vm1JU73PjJUHB3CntX3w-14" value="&lt;font style=&quot;font-size: 16px;&quot;&gt;sensors&lt;/font&gt;" style="rounded=0;whiteSpace=wrap;html=1;sketch=1;hachureGap=4;jiggle=2;curveFitting=1;fontFamily=Architects Daughter;fontSource=https://fonts.googleapis.com/css?family=Architects+Daughter;fontSize=20;fillColor=#d5e8d4;strokeColor=#82b366;strokeWidth=2;" parent="1" vertex="1">
          <mxGeometry x="120" y="300" width="70" height="30" as="geometry" />
        </mxCell>
        <mxCell id="Vm1JU73PjJUHB3CntX3w-40" style="edgeStyle=orthogonalEdgeStyle;rounded=0;sketch=1;hachureGap=4;jiggle=2;curveFitting=1;orthogonalLoop=1;jettySize=auto;html=1;exitX=0.75;exitY=1;exitDx=0;exitDy=0;entryX=0;entryY=0.5;entryDx=0;entryDy=0;fontFamily=Architects Daughter;fontSource=https%3A%2F%2Ffonts.googleapis.com%2Fcss%3Ffamily%3DArchitects%2BDaughter;fontSize=16;" parent="1" source="Vm1JU73PjJUHB3CntX3w-16" target="Vm1JU73PjJUHB3CntX3w-30" edge="1">
          <mxGeometry relative="1" as="geometry" />
        </mxCell>
        <mxCell id="Vm1JU73PjJUHB3CntX3w-16" value="&lt;font style=&quot;font-size: 16px;&quot;&gt;8x Shift Register&lt;/font&gt;" style="rounded=0;whiteSpace=wrap;html=1;sketch=1;hachureGap=4;jiggle=2;curveFitting=1;fontFamily=Architects Daughter;fontSource=https://fonts.googleapis.com/css?family=Architects+Daughter;fontSize=20;fillColor=#d5e8d4;strokeColor=#82b366;strokeWidth=2;" parent="1" vertex="1">
          <mxGeometry x="285" y="290" width="140" height="30" as="geometry" />
        </mxCell>
        <mxCell id="Vm1JU73PjJUHB3CntX3w-24" value="&lt;ol style=&quot;font-size: 11px;&quot;&gt;&lt;li&gt;Soil Moisture&lt;br&gt;&lt;/li&gt;&lt;li&gt;Soil Temperature&lt;/li&gt;&lt;li&gt;12v Battery&lt;br&gt;&lt;/li&gt;&lt;li&gt;...&lt;/li&gt;&lt;/ol&gt;" style="rounded=0;whiteSpace=wrap;html=1;sketch=1;hachureGap=4;jiggle=2;curveFitting=1;fontFamily=Architects Daughter;fontSource=https%3A%2F%2Ffonts.googleapis.com%2Fcss%3Ffamily%3DArchitects%2BDaughter;fontSize=20;align=left;" parent="1" vertex="1">
          <mxGeometry x="270" y="430" width="170" height="60" as="geometry" />
        </mxCell>
        <mxCell id="Vm1JU73PjJUHB3CntX3w-28" value="&lt;div style=&quot;&quot;&gt;Raspberry Pi&lt;/div&gt;" style="rounded=1;whiteSpace=wrap;html=1;sketch=1;hachureGap=4;jiggle=2;curveFitting=1;fontFamily=Architects Daughter;fontSource=https%3A%2F%2Ffonts.googleapis.com%2Fcss%3Ffamily%3DArchitects%2BDaughter;fontSize=20;align=center;fillColor=#f8cecc;strokeColor=#b85450;perimeterSpacing=1;strokeWidth=5;opacity=80;shadow=0;" parent="1" vertex="1">
          <mxGeometry x="30" y="430" width="160" height="80" as="geometry" />
        </mxCell>
        <mxCell id="Vm1JU73PjJUHB3CntX3w-29" value="" style="endArrow=none;dashed=1;html=1;dashPattern=1 3;strokeWidth=2;rounded=0;sketch=1;hachureGap=4;jiggle=2;curveFitting=1;fontFamily=Architects Daughter;fontSource=https%3A%2F%2Ffonts.googleapis.com%2Fcss%3Ffamily%3DArchitects%2BDaughter;fontSize=16;entryX=0;entryY=0.5;entryDx=0;entryDy=0;exitX=0.327;exitY=-0.021;exitDx=0;exitDy=0;exitPerimeter=0;" parent="1" source="Vm1JU73PjJUHB3CntX3w-28" target="Vm1JU73PjJUHB3CntX3w-2" edge="1">
          <mxGeometry width="50" height="50" relative="1" as="geometry">
            <mxPoint x="80" y="400" as="sourcePoint" />
            <mxPoint x="570" y="320" as="targetPoint" />
            <Array as="points">
              <mxPoint x="80" y="330" />
              <mxPoint x="80" y="220" />
            </Array>
          </mxGeometry>
        </mxCell>
        <mxCell id="Vm1JU73PjJUHB3CntX3w-39" value="&lt;font style=&quot;font-size: 13px;&quot;&gt;Wifi&lt;/font&gt;" style="edgeLabel;html=1;align=center;verticalAlign=middle;resizable=0;points=[];fontSize=20;fontFamily=Helvetica;" parent="Vm1JU73PjJUHB3CntX3w-29" vertex="1" connectable="0">
          <mxGeometry x="-0.1467" y="4" relative="1" as="geometry">
            <mxPoint as="offset" />
          </mxGeometry>
        </mxCell>
        <mxCell id="Vm1JU73PjJUHB3CntX3w-30" value="&lt;div style=&quot;&quot;&gt;&lt;br&gt;&lt;/div&gt;" style="rounded=1;whiteSpace=wrap;html=1;sketch=1;hachureGap=4;jiggle=2;curveFitting=1;fontFamily=Architects Daughter;fontSource=https%3A%2F%2Ffonts.googleapis.com%2Fcss%3Ffamily%3DArchitects%2BDaughter;fontSize=20;align=center;fillColor=#dae8fc;strokeColor=#6c8ebf;perimeterSpacing=1;strokeWidth=5;opacity=80;shadow=0;" parent="1" vertex="1">
          <mxGeometry x="556.25" y="160" width="250" height="250" as="geometry" />
        </mxCell>
        <mxCell id="Vm1JU73PjJUHB3CntX3w-31" value="Relais/ Board 3 or 5" style="text;html=1;strokeColor=none;fillColor=none;align=center;verticalAlign=middle;whiteSpace=wrap;rounded=0;fontSize=20;fontFamily=Architects Daughter;" parent="1" vertex="1">
          <mxGeometry x="576" y="370" width="212.5" height="30" as="geometry" />
        </mxCell>
        <mxCell id="Vm1JU73PjJUHB3CntX3w-32" value="&lt;div style=&quot;&quot;&gt;Solenoids and Pumps&lt;/div&gt;" style="rounded=1;whiteSpace=wrap;html=1;sketch=1;hachureGap=4;jiggle=2;curveFitting=1;fontFamily=Architects Daughter;fontSource=https%3A%2F%2Ffonts.googleapis.com%2Fcss%3Ffamily%3DArchitects%2BDaughter;fontSize=20;align=center;fillColor=#fff2cc;strokeColor=#d6b656;perimeterSpacing=1;strokeWidth=5;opacity=80;shadow=0;" parent="1" vertex="1">
          <mxGeometry x="581.25" y="182.5" width="200" height="70" as="geometry" />
        </mxCell>
        <mxCell id="Vm1JU73PjJUHB3CntX3w-35" style="edgeStyle=orthogonalEdgeStyle;rounded=0;sketch=1;hachureGap=4;jiggle=2;curveFitting=1;orthogonalLoop=1;jettySize=auto;html=1;exitX=0.5;exitY=1;exitDx=0;exitDy=0;entryX=1;entryY=0.218;entryDx=0;entryDy=0;entryPerimeter=0;fontFamily=Architects Daughter;fontSource=https%3A%2F%2Ffonts.googleapis.com%2Fcss%3Ffamily%3DArchitects%2BDaughter;fontSize=16;fillColor=#f8cecc;strokeColor=#b85450;opacity=60;" parent="1" source="Vm1JU73PjJUHB3CntX3w-33" target="Vm1JU73PjJUHB3CntX3w-1" edge="1">
          <mxGeometry relative="1" as="geometry" />
        </mxCell>
        <mxCell id="Vm1JU73PjJUHB3CntX3w-37" style="edgeStyle=orthogonalEdgeStyle;rounded=0;sketch=1;hachureGap=4;jiggle=2;curveFitting=1;orthogonalLoop=1;jettySize=auto;html=1;exitX=0.5;exitY=1;exitDx=0;exitDy=0;entryX=0;entryY=0.325;entryDx=0;entryDy=0;fontFamily=Architects Daughter;fontSource=https%3A%2F%2Ffonts.googleapis.com%2Fcss%3Ffamily%3DArchitects%2BDaughter;fontSize=16;fillColor=#f8cecc;strokeColor=#b85450;opacity=60;entryPerimeter=0;" parent="1" source="Vm1JU73PjJUHB3CntX3w-33" target="Vm1JU73PjJUHB3CntX3w-30" edge="1">
          <mxGeometry relative="1" as="geometry" />
        </mxCell>
        <mxCell id="Vm1JU73PjJUHB3CntX3w-33" value="&lt;b&gt;5V&lt;/b&gt;" style="ellipse;whiteSpace=wrap;html=1;aspect=fixed;sketch=1;hachureGap=4;jiggle=2;curveFitting=1;fontFamily=Architects Daughter;fontSource=https%3A%2F%2Ffonts.googleapis.com%2Fcss%3Ffamily%3DArchitects%2BDaughter;fontSize=20;fillColor=#f8cecc;strokeColor=#b85450;opacity=60;" parent="1" vertex="1">
          <mxGeometry x="480" y="110" width="20" height="20" as="geometry" />
        </mxCell>
        <mxCell id="Vm1JU73PjJUHB3CntX3w-36" style="edgeStyle=orthogonalEdgeStyle;rounded=0;sketch=1;hachureGap=4;jiggle=2;curveFitting=1;orthogonalLoop=1;jettySize=auto;html=1;exitX=0.5;exitY=1;exitDx=0;exitDy=0;entryX=0;entryY=0.25;entryDx=0;entryDy=0;fontFamily=Architects Daughter;fontSource=https%3A%2F%2Ffonts.googleapis.com%2Fcss%3Ffamily%3DArchitects%2BDaughter;fontSize=16;fillColor=#f8cecc;strokeColor=#b85450;opacity=60;" parent="1" source="Vm1JU73PjJUHB3CntX3w-34" target="Vm1JU73PjJUHB3CntX3w-30" edge="1">
          <mxGeometry relative="1" as="geometry" />
        </mxCell>
        <mxCell id="Vm1JU73PjJUHB3CntX3w-34" value="&lt;b&gt;12V&lt;/b&gt;" style="ellipse;whiteSpace=wrap;html=1;aspect=fixed;sketch=1;hachureGap=4;jiggle=2;curveFitting=1;fontFamily=Architects Daughter;fontSource=https%3A%2F%2Ffonts.googleapis.com%2Fcss%3Ffamily%3DArchitects%2BDaughter;fontSize=20;fillColor=#f8cecc;strokeColor=#b85450;opacity=60;" parent="1" vertex="1">
          <mxGeometry x="530" y="110" width="20" height="20" as="geometry" />
        </mxCell>
      </root>
    </mxGraphModel>
  </diagram>
</mxfile>
